<mxfile host="app.diagrams.net" agent="Mozilla/5.0 (Windows NT 10.0; Win64; x64) AppleWebKit/537.36 (KHTML, like Gecko) Chrome/131.0.0.0 Safari/537.36" version="25.0.1">
  <diagram name="Side-1" id="Co5U_1J7pFUFL1yNvETZ">
    <mxGraphModel dx="1050" dy="653" grid="1" gridSize="10" guides="1" tooltips="1" connect="1" arrows="1" fold="1" page="1" pageScale="1" pageWidth="827" pageHeight="1169" math="0" shadow="0">
      <root>
        <mxCell id="0" />
        <mxCell id="1" parent="0" />
        <mxCell id="XXR17RmzeVuEUT4d382m-1" value="Program.cs&lt;div&gt;&lt;br&gt;&lt;/div&gt;" style="text;html=1;align=center;verticalAlign=middle;resizable=0;points=[];autosize=1;strokeColor=none;fillColor=none;" vertex="1" parent="1">
          <mxGeometry x="240" y="33" width="80" height="40" as="geometry" />
        </mxCell>
        <mxCell id="XXR17RmzeVuEUT4d382m-5" value="" style="edgeStyle=orthogonalEdgeStyle;rounded=0;orthogonalLoop=1;jettySize=auto;html=1;" edge="1" parent="1" source="XXR17RmzeVuEUT4d382m-2" target="XXR17RmzeVuEUT4d382m-4">
          <mxGeometry relative="1" as="geometry" />
        </mxCell>
        <mxCell id="XXR17RmzeVuEUT4d382m-2" value="Welcome Messages" style="rounded=1;whiteSpace=wrap;html=1;absoluteArcSize=1;arcSize=14;strokeWidth=2;" vertex="1" parent="1">
          <mxGeometry x="210" y="90" width="80" height="40" as="geometry" />
        </mxCell>
        <mxCell id="XXR17RmzeVuEUT4d382m-7" value="" style="edgeStyle=orthogonalEdgeStyle;rounded=0;orthogonalLoop=1;jettySize=auto;html=1;" edge="1" parent="1" source="XXR17RmzeVuEUT4d382m-4" target="XXR17RmzeVuEUT4d382m-6">
          <mxGeometry relative="1" as="geometry" />
        </mxCell>
        <mxCell id="XXR17RmzeVuEUT4d382m-4" value="Rounds Loop" style="whiteSpace=wrap;html=1;rounded=1;arcSize=14;strokeWidth=2;" vertex="1" parent="1">
          <mxGeometry x="195" y="150" width="110" height="50" as="geometry" />
        </mxCell>
        <mxCell id="XXR17RmzeVuEUT4d382m-10" value="" style="edgeStyle=orthogonalEdgeStyle;rounded=0;orthogonalLoop=1;jettySize=auto;html=1;" edge="1" parent="1" source="XXR17RmzeVuEUT4d382m-6" target="XXR17RmzeVuEUT4d382m-9">
          <mxGeometry relative="1" as="geometry" />
        </mxCell>
        <mxCell id="XXR17RmzeVuEUT4d382m-6" value="Time Loop" style="whiteSpace=wrap;html=1;rounded=1;arcSize=14;strokeWidth=2;" vertex="1" parent="1">
          <mxGeometry x="195" y="230" width="110" height="50" as="geometry" />
        </mxCell>
        <mxCell id="XXR17RmzeVuEUT4d382m-14" value="" style="edgeStyle=orthogonalEdgeStyle;rounded=0;orthogonalLoop=1;jettySize=auto;html=1;" edge="1" parent="1" source="XXR17RmzeVuEUT4d382m-9" target="XXR17RmzeVuEUT4d382m-13">
          <mxGeometry relative="1" as="geometry">
            <Array as="points">
              <mxPoint x="250" y="420" />
            </Array>
          </mxGeometry>
        </mxCell>
        <mxCell id="XXR17RmzeVuEUT4d382m-9" value="Boxer 1 Attack" style="whiteSpace=wrap;html=1;rounded=1;arcSize=14;strokeWidth=2;" vertex="1" parent="1">
          <mxGeometry x="200" y="310" width="99" height="40" as="geometry" />
        </mxCell>
        <mxCell id="XXR17RmzeVuEUT4d382m-17" style="edgeStyle=orthogonalEdgeStyle;rounded=0;orthogonalLoop=1;jettySize=auto;html=1;entryX=1;entryY=0.5;entryDx=0;entryDy=0;" edge="1" parent="1" source="XXR17RmzeVuEUT4d382m-13" target="XXR17RmzeVuEUT4d382m-15">
          <mxGeometry relative="1" as="geometry">
            <Array as="points">
              <mxPoint x="450" y="400" />
            </Array>
          </mxGeometry>
        </mxCell>
        <mxCell id="XXR17RmzeVuEUT4d382m-18" value="False" style="edgeLabel;html=1;align=center;verticalAlign=middle;resizable=0;points=[];" vertex="1" connectable="0" parent="XXR17RmzeVuEUT4d382m-17">
          <mxGeometry x="0.0974" y="2" relative="1" as="geometry">
            <mxPoint as="offset" />
          </mxGeometry>
        </mxCell>
        <mxCell id="XXR17RmzeVuEUT4d382m-20" value="" style="edgeStyle=orthogonalEdgeStyle;rounded=0;orthogonalLoop=1;jettySize=auto;html=1;" edge="1" parent="1" source="XXR17RmzeVuEUT4d382m-13" target="XXR17RmzeVuEUT4d382m-19">
          <mxGeometry relative="1" as="geometry">
            <Array as="points">
              <mxPoint x="650" y="450" />
            </Array>
          </mxGeometry>
        </mxCell>
        <mxCell id="XXR17RmzeVuEUT4d382m-21" value="True" style="edgeLabel;html=1;align=center;verticalAlign=middle;resizable=0;points=[];" vertex="1" connectable="0" parent="XXR17RmzeVuEUT4d382m-20">
          <mxGeometry x="-0.595" y="4" relative="1" as="geometry">
            <mxPoint x="9" y="4" as="offset" />
          </mxGeometry>
        </mxCell>
        <mxCell id="XXR17RmzeVuEUT4d382m-13" value="Is Opponent KO?" style="rhombus;whiteSpace=wrap;html=1;rounded=1;arcSize=14;strokeWidth=2;" vertex="1" parent="1">
          <mxGeometry x="250" y="400" width="120" height="60" as="geometry" />
        </mxCell>
        <mxCell id="XXR17RmzeVuEUT4d382m-15" value="Boxer 2 Attack" style="whiteSpace=wrap;html=1;rounded=1;arcSize=14;strokeWidth=2;" vertex="1" parent="1">
          <mxGeometry x="340" y="320" width="99" height="40" as="geometry" />
        </mxCell>
        <mxCell id="XXR17RmzeVuEUT4d382m-23" style="edgeStyle=orthogonalEdgeStyle;rounded=0;orthogonalLoop=1;jettySize=auto;html=1;entryX=1;entryY=0.5;entryDx=0;entryDy=0;" edge="1" parent="1" source="XXR17RmzeVuEUT4d382m-19" target="XXR17RmzeVuEUT4d382m-22">
          <mxGeometry relative="1" as="geometry">
            <Array as="points">
              <mxPoint x="650" y="740" />
            </Array>
          </mxGeometry>
        </mxCell>
        <mxCell id="XXR17RmzeVuEUT4d382m-19" value="&lt;div&gt;Write KO Message&lt;/div&gt;" style="whiteSpace=wrap;html=1;rounded=1;arcSize=14;strokeWidth=2;" vertex="1" parent="1">
          <mxGeometry x="590" y="300" width="120" height="60" as="geometry" />
        </mxCell>
        <mxCell id="XXR17RmzeVuEUT4d382m-22" value="End match" style="whiteSpace=wrap;html=1;" vertex="1" parent="1">
          <mxGeometry x="220" y="710" width="120" height="60" as="geometry" />
        </mxCell>
      </root>
    </mxGraphModel>
  </diagram>
</mxfile>
